<?xml version="1.0" encoding="utf-8"?>
<!-- Generator: Adobe Illustrator 21.0.0, SVG Export Plug-In . SVG Version: 6.00 Build 0)  -->
<svg version="1.1" id="Слой_1" xmlns="http://www.w3.org/2000/svg" xmlns:xlink="http://www.w3.org/1999/xlink" x="0px" y="0px"
	 viewBox="0 0 1700.8 251" style="enable-background:new 0 0 1700.8 251;" xml:space="preserve">
<style type="text/css">
	.st0{fill-rule:evenodd;clip-rule:evenodd;fill:#9D7ECB;}
	.st1{fill-rule:evenodd;clip-rule:evenodd;fill:#F5B0B4;}
	.st2{fill-rule:evenodd;clip-rule:evenodd;fill:#5E5E5E;}
	.st3{fill-rule:evenodd;clip-rule:evenodd;fill:#EE7C00;}
	.st4{fill-rule:evenodd;clip-rule:evenodd;fill:#3B3A39;}
	.st5{fill-rule:evenodd;clip-rule:evenodd;fill:#58B847;}
	.st6{fill-rule:evenodd;clip-rule:evenodd;fill:#575656;}
	.st7{fill-rule:evenodd;clip-rule:evenodd;fill:#232323;}
	.st8{fill-rule:evenodd;clip-rule:evenodd;fill:#FFCE66;}
	.st9{fill-rule:evenodd;clip-rule:evenodd;fill:#FFFFFF;}
</style>
<rect x="223.2" y="194.1" class="st0" width="37.4" height="57.6"/>
<path class="st1" d="M228.4,179.5v12.1h27.9v-13.5c5.3-11.8,1.7-27.2-17.9-35.7v-19.6c0-6.9-4.4-9.7-10.6-9.5V149l-2.1,0.1
	c0.7-2.8-0.5-4.4-2-5.2v-2.5h2.1v-15l-11.4,22c-1.9,3.6-1.9,6.1,0,9.4L228.4,179.5z"/>
<rect x="365.2" y="194.1" class="st0" width="37.4" height="57.6"/>
<path class="st1" d="M397.3,179.5v12.1h-27.9v-13.5c-5.3-11.8-1.7-27.2,17.9-35.7v-19.6c0-6.9,4.4-9.7,10.6-9.5V149l2.1,0.1
	c-0.7-2.8,0.5-4.4,2-5.2v-2.5h-2.1v-15l11.4,22c1.9,3.6,1.9,6.1,0,9.4L397.3,179.5z"/>
<path class="st2" d="M261,170.5c0.2-2.4,0.1-4.7-0.3-7h104.3c-0.4,2.3-0.5,4.7-0.3,7H261z M384.3,52.4H241.5
	c-6.4,0-11.7,5.3-11.7,11.7v46.8c2.8,0.2,5.2,1,7,2.4V64.1c0-2.6,2.1-4.7,4.7-4.7h142.8c2.6,0,4.7,2.1,4.7,4.7v49.2
	c1.9-1.4,4.2-2.2,7-2.4V64.1C396,57.6,390.7,52.4,384.3,52.4z"/>
<rect x="1480.6" y="114.6" class="st3" width="219.9" height="67.6"/>
<path class="st1" d="M1343.8,141.5c0-5.4,3.7-9.8,8.3-9.8s8.3,4.4,8.3,9.8c0,5.4-3.7,9.8-8.3,9.8S1343.8,146.9,1343.8,141.5
	 M1343.8,95.3c0-5.4,3.7-9.8,8.3-9.8s8.3,4.4,8.3,9.8s-3.7,9.8-8.3,9.8S1343.8,100.7,1343.8,95.3z M1343.8,118.4
	c0-5.4,3.7-9.8,8.3-9.8s8.3,4.4,8.3,9.8c0,5.4-3.7,9.8-8.3,9.8S1343.8,123.8,1343.8,118.4z M1466.9,123.4l8.3,0.9v52.1
	c-10.5,9-26.6,10.8-44.7,10v-72.7c-7.2-12.3-7.8-27.8,2.3-37c8-7.3,13.8,3.5,12.3,6.6c-2.1,4.3-3.2,8.8-1.7,13.1
	C1447,107.1,1458.8,113.5,1466.9,123.4z M1346,163.3c0-4.7,3.2-8.5,7.2-8.5c4,0,7.2,3.8,7.2,8.5s-3.2,8.5-7.2,8.5
	C1349.2,171.8,1346,168,1346,163.3z"/>
<path class="st4" d="M1360.2,109.7V104c-1,1.2-2.1,2.2-3.5,2.9C1358.1,107.5,1359.3,108.5,1360.2,109.7 M1360.2,132.8V127
	c-1,1.2-2.1,2.2-3.5,2.9C1358.1,130.6,1359.3,131.6,1360.2,132.8z M1360.2,155.1v-5c-0.9,1.1-1.9,2-3,2.7
	C1358.3,153.3,1359.4,154.2,1360.2,155.1z M1354.4,190v-15.5c2.4-0.3,4.4-1.5,5.8-3.2v3.3h61.6v-106h-61.6v18
	c-1.5-1.8-3.5-3.2-5.8-3.8V53.3c0-3,2.4-5.4,5.4-5.4h62.4c3,0,5.4,2.4,5.4,5.4V78c-7.9,10.5-6.3,25.1,0,36.4v74.6v1
	c0,3-2.4,5.4-5.4,5.4h-62.4C1356.8,195.5,1354.4,193,1354.4,190z"/>
<path class="st1" d="M525.1,93.7c6.5,0,11.8,4.4,11.8,9.9c0,5.5-5.3,9.9-11.8,9.9c-6.5,0-11.8-4.4-11.8-9.9
	C513.3,98.1,518.6,93.7,525.1,93.7 M580.4,93.7c6.5,0,11.8,4.4,11.8,9.9c0,5.5-5.3,9.9-11.8,9.9c-6.5,0-11.8-4.4-11.8-9.9
	C568.6,98.1,573.9,93.7,580.4,93.7z M552.8,93.7c6.5,0,11.8,4.4,11.8,9.9c0,5.5-5.3,9.9-11.8,9.9c-6.5,0-11.8-4.4-11.8-9.9
	C541,98.1,546.3,93.7,552.8,93.7z M546.8,241.1l-1,9.9h-62.5c-10.8-12.6-13-31.9-11.9-53.6h87c14.8-8.7,33.3-9.4,44.4,2.7
	c8.7,9.5-4.1,16.5-7.9,14.7c-5.2-2.5-10.6-3.8-15.7-2C566.3,217.2,558.6,231.3,546.8,241.1z M499,96.2c5.7,0,10.2,3.9,10.2,8.6
	c0,4.8-4.6,8.6-10.2,8.6c-5.7,0-10.2-3.9-10.2-8.6C488.8,100.1,493.4,96.2,499,96.2z"/>
<path class="st4" d="M563.1,113.3h6.9c-1.4-1.1-2.6-2.5-3.5-4.1C565.7,110.8,564.6,112.1,563.1,113.3 M535.5,113.3h6.9
	c-1.4-1.1-2.6-2.5-3.5-4.1C538.1,110.8,536.9,112.1,535.5,113.3z M508.7,113.3h6c-1.3-1-2.4-2.3-3.2-3.6
	C510.9,111,509.9,112.3,508.7,113.3z M466.9,106.3h18.5c0.4,2.8,1.8,5.2,3.8,7h-3.9V187h127v-73.7h-21.5c2.2-1.8,3.9-4.2,4.5-7h35.5
	c3.6,0,6.5,2.9,6.5,6.5v74.7c0,3.6-2.9,6.5-6.5,6.5h-29.7c-12.5-9.5-30.1-7.6-43.6,0h-89.4h-1.2c-3.6,0-6.5-2.9-6.5-6.5v-74.7
	C460.4,109.2,463.4,106.3,466.9,106.3z"/>
<path class="st1" d="M691,241.3v9.4h40.5v-11.3c7.7-17,2.4-39.4-25.9-51.6v-28.3c0-10-6.4-14-15.3-13.8v51.6l-3,0.2
	c0.9-4.1-0.8-6.4-2.9-7.5v-3.6h3.1v-21.8l-16.5,31.8c-2.7,5.3-2.8,8.8,0,13.7L691,241.3z"/>
<path class="st0" d="M701.1,41.2h123.4c6,0,11,4.9,11,11v157.1c0,6.1-4.9,11-11,11h-87.4c-0.6-4.6-2-9-4.3-13.2
	c-0.4-0.7-0.8-1.3-1.2-2h88.7V56.4H705.2v92.5c-3.1-4.2-8.5-6.2-15.1-6.1l0,0V52.2C690.1,46.2,695,41.2,701.1,41.2"/>
<rect x="0.8" y="114.6" class="st5" width="44.2" height="67.6"/>
<path class="st1" d="M181.8,141.5c0-5.4-3.7-9.8-8.3-9.8c-4.6,0-8.3,4.4-8.3,9.8c0,5.4,3.7,9.8,8.3,9.8
	C178.1,151.3,181.8,146.9,181.8,141.5 M181.8,95.3c0-5.4-3.7-9.8-8.3-9.8c-4.6,0-8.3,4.4-8.3,9.8s3.7,9.8,8.3,9.8
	C178.1,105.1,181.8,100.7,181.8,95.3z M181.8,118.4c0-5.4-3.7-9.8-8.3-9.8c-4.6,0-8.3,4.4-8.3,9.8c0,5.4,3.7,9.8,8.3,9.8
	C178.1,128.2,181.8,123.8,181.8,118.4z M58.7,123.4l-8.3,0.9v52.1c10.5,9,26.6,10.8,44.7,10v-72.7c7.2-12.3,7.8-27.8-2.3-37
	c-8-7.3-13.8,3.5-12.3,6.6c2.1,4.3,3.2,8.8,1.7,13.1C78.7,107.1,66.9,113.5,58.7,123.4z M179.7,163.3c0-4.7-3.2-8.5-7.2-8.5
	c-4,0-7.2,3.8-7.2,8.5s3.2,8.5,7.2,8.5C176.5,171.8,179.7,168,179.7,163.3z"/>
<path class="st4" d="M165.4,109.7V104c1,1.2,2.1,2.2,3.5,2.9C167.6,107.5,166.4,108.5,165.4,109.7 M165.4,132.8V127
	c1,1.2,2.1,2.2,3.5,2.9C167.6,130.6,166.4,131.6,165.4,132.8z M165.4,155.1v-5c0.9,1.1,1.9,2,3,2.7
	C167.3,153.3,166.3,154.2,165.4,155.1z M171.3,190v-15.5c-2.4-0.3-4.4-1.5-5.8-3.2v3.3h-61.6v-106h61.6v18c1.5-1.8,3.5-3.2,5.8-3.8
	V53.3c0-3-2.4-5.4-5.4-5.4h-62.4c-3,0-5.4,2.4-5.4,5.4V78c7.9,10.5,6.3,25.1,0,36.4v74.6v1c0,3,2.4,5.4,5.4,5.4h62.4
	C168.8,195.5,171.3,193,171.3,190z"/>
<path class="st1" d="M1297.6,195.6c0.8,14.8,6.9,25.7,13.8,31.9l22.9,23l-50,0l-21.2-23.9c-7-7.9-7.9-23.5-7.6-41.7l-25-28.5
	c-7.9-9,6.8-19.9,13.5-12.6l24.8,27.4c7.6,2,6.1-10.4-3-12.2l0.2-15c15.9,3.6,29.5,10.9,30,20L1297.6,195.6z"/>
<path class="st6" d="M1154.3,40.6h98.9c5.4,0,9.8,4.4,9.8,9.8v110.8l-13.5-14.9V51.5h-91.6v140.2h91.6v-9.9l3.5,3.9
	c-0.1,8,0,16.3,1.1,24.1c-0.3,0-0.6,0-0.9,0h-98.9c-5.4,0-9.8-4.4-9.8-9.8V50.4C1144.5,45,1148.9,40.6,1154.3,40.6"/>
<path class="st6" d="M976.4,209.3h31.4v8.4h-31.4V209.3z M908.8,193h166.4V85.1H908.8V193z M901.2,200.6h181.6V77.5H901.2V200.6z
	 M894,204.7h196v17.4H894V204.7z"/>
<path class="st2" d="M1380.4,105.7h21.9c0,0,0,0,0,0v15.7c0,0,0,0,0,0h-21.9c0,0,0,0,0,0L1380.4,105.7
	C1380.3,105.7,1380.3,105.7,1380.4,105.7 M1390.8,122.5v6.8l-3.8,3.8c-0.2,0.2-0.2,0.6,0,0.8c0.2,0.2,0.6,0.2,0.8,0l3-3v2.6
	c0,0.3,0.2,0.5,0.5,0.5c0.3,0,0.5-0.2,0.5-0.5v-2.6l3,3c0.2,0.2,0.6,0.2,0.8,0c0.2-0.2,0.2-0.6,0-0.8l-3.8-3.8v-6.8h10.4
	c0.6,0,1-0.5,1-1v-15.7c0-0.6-0.5-1-1-1h-21.9c-0.6,0-1,0.5-1,1v15.7c0,0.6,0.5,1,1,1H1390.8z"/>
<path class="st7" d="M1370.9,108.3l0,1.8h-0.7v-0.6l-1.5,0.3c-0.2-1.9,0-3.2,1.2-3.3c0.1-0.7,0.5-1.2,1.4-1.2h5c0,0.9-0.4,1.4-1,1.7
	l0.8,0.8c-0.2,0.4-0.6,0.6-1,0.6H1370.9z"/>
<path class="st8" d="M1370.9,108.2c0-0.6,0.5-0.9,1.1-0.9h3c0,1.4,0,2.2,0,3.6c-0.1,3.4-4.9,3.2-4.9,0.1c-2.2,0.3-2.3-1.9,0-1.6h0.2
	v0.6h0.6V108.2z"/>
<path class="st4" d="M1372.1,109.1c0.1,0,0.3,0.1,0.3,0.3c0,0.1-0.1,0.3-0.3,0.3s-0.3-0.1-0.3-0.3
	C1371.9,109.2,1372,109.1,1372.1,109.1"/>
<path class="st4" d="M1373.9,109.1c0.1,0,0.3,0.1,0.3,0.3c0,0.1-0.1,0.3-0.3,0.3s-0.3-0.1-0.3-0.3
	C1373.6,109.2,1373.8,109.1,1373.9,109.1"/>
<path class="st0" d="M1375.3,123.1c0,2.7,0,5.4,0,8.1c0,1.1,0.6,1.4,1.2,2c0.5,0.4-0.1,1.1-0.5,0.8c-0.6-0.4-1.9-1.2-1.9-2.3v-7.5
	h-3.3v7c0,1.1,0.6,1.4,1.2,2c0.5,0.4-0.1,1.1-0.5,0.8c-0.6-0.4-1.9-1.2-1.9-2.3c0-2.9,0-5.7,0-8.6H1375.3z"/>
<path class="st3" d="M1370.3,114.4h4.1c0.4,0,0.8,0.4,0.8,0.8c0,2.5,0,5.1,0,7.6h-5.7c0-2.5,0-5.1,0-7.6
	C1369.6,114.8,1369.9,114.4,1370.3,114.4"/>
<path class="st3" d="M1370.8,115l-0.8-0.4c-2.3,2.1-3.1,5.4-3.2,9.7c0,0.8,1.1,0.8,1.1,0C1367.9,120.4,1368.7,117.3,1370.8,115"/>
<polygon class="st9" points="1370.7,114.4 1372,114.4 1372,115.7 "/>
<polygon class="st9" points="1374.1,114.4 1372.9,114.4 1372.9,115.7 "/>
<path class="st3" d="M1374.2,115.6c3.4,1.3,6.7-0.7,9.9-3.9c0.6-0.7-0.2-1.5-0.8-0.9c-2.8,2.8-5.5,4.4-8.6,3.7L1374.2,115.6z"/>
<path class="st4" d="M1373.1,111.3c0.2,0,0.4,0.2,0.4,0.4c0,0.2-0.2,0.4-0.4,0.4s-0.4-0.2-0.4-0.4
	C1372.7,111.5,1372.9,111.3,1373.1,111.3"/>
<path class="st2" d="M1408,110h4.9c0.5,0,0.9,0.4,0.9,0.9v2.7c0,0.5-0.4,0.9-0.9,0.9h-4.9c-0.5,0-0.9-0.4-0.9-0.9v-0.9l-1.2,1.2
	c-0.4,0.4-0.6,0.2-0.6-0.2l0-2.9c0-0.4,0.3-0.5,0.6-0.2l1.2,1.2v-0.9C1407.1,110.4,1407.5,110,1408,110"/>
<path class="st2" d="M1408,108h4.9c0.4,0,0.7,0.3,0.7,0.7s-0.3,0.7-0.7,0.7h-4.9c-0.4,0-0.7-0.3-0.7-0.7S1407.6,108,1408,108"/>
<path class="st2" d="M1410.9,114L1410.9,114c-0.2,0-0.4,0.2-0.3,0.5l2.7,19.3c0,0.2,0.2,0.4,0.5,0.3l0,0c0.2,0,0.4-0.2,0.3-0.5
	l-2.7-19.3C1411.3,114.1,1411.1,113.9,1410.9,114 M1410.2,114L1410.2,114c0.2,0,0.4,0.2,0.3,0.5l-2.7,19.3c0,0.2-0.2,0.4-0.5,0.3
	l0,0c-0.2,0-0.4-0.2-0.3-0.5l2.7-19.3C1409.7,114.1,1409.9,113.9,1410.2,114z"/>
<path class="st0" d="M1403.8,162.3h13.1c0.8,0,1.4,0.6,1.4,1.4v6.5c0,0.8-0.6,1.4-1.4,1.4h-13.1c-0.8,0-1.4-0.6-1.4-1.4v-6.5
	C1402.4,162.9,1403,162.3,1403.8,162.3"/>
<path class="st0" d="M1385.7,162.3h13.1c0.8,0,1.4,0.6,1.4,1.4v6.5c0,0.8-0.6,1.4-1.4,1.4h-13.1c-0.8,0-1.4-0.6-1.4-1.4v-6.5
	C1384.3,162.9,1384.9,162.3,1385.7,162.3"/>
<path class="st2" d="M1187.6,95.2h34.8c0,0,0.1,0,0.1,0.1v24.9c0,0,0,0.1-0.1,0.1h-34.8c0,0-0.1,0-0.1-0.1L1187.6,95.2
	C1187.5,95.2,1187.5,95.2,1187.6,95.2 M1204.1,121.8v10.8l-6,6c-0.3,0.3-0.3,0.9,0,1.2c0.3,0.3,0.9,0.3,1.2,0l4.8-4.8v4.2
	c0,0.5,0.4,0.9,0.9,0.9s0.9-0.4,0.9-0.9V135l4.8,4.8c0.3,0.3,0.9,0.3,1.2,0c0.3-0.3,0.3-0.9,0-1.2l-6-6v-10.8h16.5
	c0.9,0,1.6-0.7,1.6-1.6V95.3c0-0.9-0.7-1.6-1.6-1.6h-34.8c-0.9,0-1.6,0.7-1.6,1.6v24.9c0,0.9,0.7,1.6,1.6,1.6H1204.1z"/>
<path class="st7" d="M1172.6,99.2l-0.1,2.9h-1.1v-1l-2.4,0.5c-0.4-3,0.1-5,1.8-5.3c0.1-1.1,0.7-1.9,2.2-2h7.9c0,1.4-0.6,2.2-1.6,2.7
	l1.3,1.3c-0.4,0.7-0.9,0.9-1.6,0.9H1172.6z"/>
<path class="st8" d="M1172.5,99.2c0-0.9,0.8-1.4,1.8-1.4h4.7c0,2.2,0,3.5,0,5.7c-0.1,5.3-7.8,5.1-7.8,0.2c-3.6,0.5-3.6-3.1,0-2.6
	h0.3v1h1V99.2z"/>
<path class="st4" d="M1174.5,100.5c0.2,0,0.4,0.2,0.4,0.4c0,0.2-0.2,0.4-0.4,0.4s-0.4-0.2-0.4-0.4
	C1174.1,100.7,1174.3,100.5,1174.5,100.5"/>
<path class="st4" d="M1177.3,100.5c0.2,0,0.4,0.2,0.4,0.4c0,0.2-0.2,0.4-0.4,0.4c-0.2,0-0.4-0.2-0.4-0.4
	C1176.9,100.7,1177.1,100.5,1177.3,100.5"/>
<path class="st0" d="M1179.5,122.7c0,4.3,0,8.5,0,12.8c0,1.8,0.9,2.2,1.9,3.1c0.8,0.7-0.1,1.8-0.8,1.3c-0.9-0.6-3-1.9-3-3.6v-11.8
	h-5.2v11c0,1.8,0.9,2.2,1.9,3.1c0.8,0.7-0.1,1.8-0.8,1.3c-0.9-0.6-3-1.9-3-3.6c0-4.5,0-9.1,0-13.6H1179.5z"/>
<path class="st3" d="M1171.7,109h6.5c0.7,0,1.2,0.6,1.2,1.2c0,4,0,8,0,12h-9c0-4,0-8,0-12C1170.4,109.5,1171,109,1171.7,109"/>
<path class="st3" d="M1172.3,109.9l-1.3-0.7c-3.7,3.3-4.9,8.5-5,15.4c0,1.3,1.7,1.2,1.7,0C1167.9,118.5,1169,113.5,1172.3,109.9"/>
<polygon class="st9" points="1172.3,108.9 1174.3,108.9 1174.3,110.9 "/>
<polygon class="st9" points="1177.7,108.9 1175.7,108.9 1175.7,110.9 "/>
<path class="st3" d="M1177.8,110.9c5.3,2,10.6-1.1,15.7-6.2c1-1-0.3-2.4-1.2-1.5c-4.5,4.5-8.7,7-13.7,5.9L1177.8,110.9z"/>
<path class="st4" d="M1176,104c0.4,0,0.6,0.3,0.6,0.6s-0.3,0.6-0.6,0.6c-0.4,0-0.6-0.3-0.6-0.6S1175.7,104,1176,104"/>
<path class="st2" d="M1231.4,102h7.7c0.8,0,1.4,0.6,1.4,1.4v4.3c0,0.8-0.6,1.4-1.4,1.4h-7.7c-0.8,0-1.4-0.6-1.4-1.4v-1.4l-1.8,1.8
	c-0.6,0.6-1,0.3-1-0.3l0-4.6c0-0.6,0.5-0.7,1-0.3l1.8,1.8v-1.4C1230,102.7,1230.6,102,1231.4,102"/>
<path class="st2" d="M1231.4,98.9h7.7c0.6,0,1.1,0.5,1.1,1.1c0,0.6-0.5,1.1-1.1,1.1h-7.7c-0.6,0-1.1-0.5-1.1-1.1
	C1230.3,99.4,1230.8,98.9,1231.4,98.9"/>
<path class="st2" d="M1235.9,108.3L1235.9,108.3c-0.3,0-0.6,0.4-0.5,0.7l4.3,30.5c0,0.3,0.4,0.6,0.7,0.5l0,0c0.3,0,0.6-0.4,0.5-0.7
	l-4.3-30.5C1236.6,108.5,1236.2,108.2,1235.9,108.3 M1234.8,108.3L1234.8,108.3c0.3,0,0.6,0.4,0.5,0.7l-4.3,30.5
	c0,0.3-0.4,0.6-0.7,0.5h0c-0.3,0-0.6-0.4-0.5-0.7l4.3-30.5C1234.1,108.5,1234.4,108.2,1234.8,108.3z"/>
<path class="st0" d="M1244.3,176.7c-1.3-1.3-2.5-2.6-3.7-3.9h-18c-1.2,0-2.2,1-2.2,2.2v10.2c0,1.2,1,2.2,2.2,2.2h20.8
	c1.2,0,2.2-1,2.2-2.2v-7.1C1245.2,177.6,1244.8,177.2,1244.3,176.7z"/>
<path class="st0" d="M1194,172.8h20.8c1.2,0,2.2,1,2.2,2.2v10.2c0,1.2-1,2.2-2.2,2.2H1194c-1.2,0-2.2-1-2.2-2.2V175
	C1191.8,173.8,1192.8,172.8,1194,172.8"/>
<path class="st2" d="M970.2,102.7h48.5c0,0,0.1,0,0.1,0.1v34.7c0,0,0,0.1-0.1,0.1h-48.5c0,0-0.1,0-0.1-0.1L970.2,102.7
	C970.1,102.7,970.1,102.7,970.2,102.7 M993.2,139.7v15l-8.4,8.4c-0.5,0.5-0.5,1.2,0,1.7c0.5,0.5,1.2,0.5,1.7,0l6.7-6.7v5.8
	c0,0.7,0.5,1.2,1.2,1.2c0.7,0,1.2-0.5,1.2-1.2v-5.8l6.7,6.7c0.5,0.5,1.2,0.5,1.7,0c0.5-0.5,0.5-1.2,0-1.7l-8.4-8.4v-15h23
	c1.2,0,2.3-1,2.3-2.3v-34.7c0-1.2-1-2.3-2.3-2.3h-48.5c-1.2,0-2.3,1-2.3,2.3v34.7c0,1.2,1,2.3,2.3,2.3H993.2z"/>
<path class="st7" d="M949.3,108.3l-0.1,4.1h-1.6V111l-3.4,0.6c-0.5-4.2,0.1-7,2.6-7.4c0.2-1.6,1-2.7,3-2.7h11
	c-0.1,1.9-0.8,3.1-2.2,3.7l1.8,1.8c-0.5,1-1.3,1.3-2.2,1.3H949.3z"/>
<path class="st8" d="M949.2,108.2c0-1.2,1.2-2,2.5-2h6.6c0,3.1,0,4.9,0,8c-0.2,7.4-10.9,7.2-10.9,0.3c-5,0.7-5-4.3,0-3.6h0.4v1.4
	h1.4V108.2z"/>
<path class="st4" d="M952,110.1c0.3,0,0.6,0.3,0.6,0.6c0,0.3-0.3,0.6-0.6,0.6s-0.6-0.3-0.6-0.6C951.4,110.3,951.7,110.1,952,110.1"
	/>
<path class="st4" d="M955.9,110.1c0.3,0,0.6,0.3,0.6,0.6c0,0.3-0.3,0.6-0.6,0.6s-0.6-0.3-0.6-0.6
	C955.3,110.3,955.6,110.1,955.9,110.1"/>
<path class="st0" d="M958.9,141.1c0,5.9,0,11.9,0,17.8c0,2.5,1.3,3,2.7,4.3c1.1,1-0.2,2.5-1.1,1.8c-1.2-0.9-4.2-2.7-4.2-5.1v-16.5
	h-7.3v15.4c0,2.5,1.3,3,2.7,4.3c1.1,1-0.2,2.5-1.1,1.8c-1.2-0.9-4.2-2.7-4.2-5.1c0-6.3,0-12.6,0-18.9H958.9z"/>
<path class="st3" d="M948,121.9h9.1c1,0,1.7,0.8,1.7,1.7c0,5.6,0,11.2,0,16.8h-12.6c0-5.6,0-11.2,0-16.8
	C946.3,122.7,947.1,121.9,948,121.9"/>
<path class="st3" d="M948.9,123.1l-1.9-1c-5.1,4.6-6.8,11.9-7,21.4c0,1.8,2.3,1.7,2.4,0.1C942.7,135.2,944.3,128.2,948.9,123.1"/>
<polygon class="st9" points="948.9,121.8 951.7,121.8 951.7,124.6 "/>
<polygon class="st9" points="956.4,121.8 953.6,121.8 953.6,124.6 "/>
<path class="st3" d="M956.5,124.5c7.4,2.8,14.7-1.5,21.8-8.7c1.4-1.4-0.4-3.4-1.7-2.1c-6.2,6.3-12.1,9.8-19.1,8.2L956.5,124.5z"/>
<path class="st4" d="M954.1,115c0.5,0,0.9,0.4,0.9,0.9s-0.4,0.9-0.9,0.9s-0.9-0.4-0.9-0.9S953.6,115,954.1,115"/>
<path class="st2" d="M1031.3,112.2h10.8c1.1,0,2,0.9,2,2v6c0,1.1-0.9,2-2,2h-10.8c-1.1,0-2-0.9-2-2v-1.9l-2.6,2.6
	c-0.8,0.8-1.4,0.4-1.4-0.4l0-6.4c0-0.9,0.7-1,1.3-0.4l2.6,2.6v-1.9C1029.3,113.1,1030.2,112.2,1031.3,112.2"/>
<path class="st2" d="M1031.3,107.8h10.8c0.9,0,1.6,0.7,1.6,1.6c0,0.9-0.7,1.6-1.6,1.6h-10.8c-0.9,0-1.6-0.7-1.6-1.6
	C1029.7,108.5,1030.4,107.8,1031.3,107.8"/>
<path class="st2" d="M1037.5,120.9L1037.5,120.9c-0.5,0.1-0.8,0.5-0.8,1l6,42.5c0.1,0.5,0.5,0.8,1,0.8l0,0c0.5-0.1,0.8-0.5,0.8-1
	l-6-42.5C1038.4,121.2,1038,120.8,1037.5,120.9 M1036,120.9L1036,120.9c0.5,0.1,0.8,0.5,0.8,1l-6,42.5c-0.1,0.5-0.5,0.8-1,0.8l0,0
	c-0.5-0.1-0.8-0.5-0.8-1l6-42.5C1035,121.2,1035.5,120.8,1036,120.9z"/>
<path class="st0" d="M1037.3,167.9h29c1.7,0,3.1,1.4,3.1,3.1v14.3c0,1.7-1.4,3.1-3.1,3.1h-29c-1.7,0-3.1-1.4-3.1-3.1V171
	C1034.3,169.3,1035.7,167.9,1037.3,167.9"/>
<path class="st0" d="M997.4,167.9h29c1.7,0,3.1,1.4,3.1,3.1v14.3c0,1.7-1.4,3.1-3.1,3.1h-29c-1.7,0-3.1-1.4-3.1-3.1V171
	C994.4,169.3,995.8,167.9,997.4,167.9"/>
<path class="st2" d="M737.2,98.5h46.2c0,0,0.1,0,0.1,0.1v33.1c0,0,0,0.1-0.1,0.1h-46.2c0,0-0.1,0-0.1-0.1L737.2,98.5
	C737.1,98.6,737.1,98.5,737.2,98.5 M759.1,133.9v14.3l-8,8c-0.4,0.4-0.4,1.2,0,1.6c0.4,0.4,1.2,0.4,1.6,0l6.4-6.4v5.6
	c0,0.6,0.5,1.2,1.2,1.2c0.6,0,1.2-0.5,1.2-1.2v-5.6l6.4,6.4c0.4,0.4,1.2,0.4,1.6,0c0.4-0.4,0.4-1.2,0-1.6l-8-8v-14.3h22
	c1.2,0,2.2-1,2.2-2.2V98.6c0-1.2-1-2.2-2.2-2.2h-46.2c-1.2,0-2.2,1-2.2,2.2v33.1c0,1.2,1,2.2,2.2,2.2H759.1z"/>
<path class="st7" d="M717.3,103.9l-0.1,3.9h-1.5v-1.3l-3.2,0.6c-0.5-4,0.1-6.6,2.5-7c0.2-1.5,1-2.5,2.9-2.6h10.5
	c0,1.8-0.8,3-2.1,3.6l1.7,1.7c-0.5,0.9-1.2,1.3-2.1,1.2H717.3z"/>
<path class="st8" d="M717.2,103.8c0-1.2,1.1-1.9,2.4-1.9h6.3c0,2.9,0,4.7,0,7.6c-0.2,7.1-10.4,6.8-10.4,0.3c-4.7,0.6-4.8-4.1,0-3.5
	h0.4v1.3h1.3V103.8z"/>
<path class="st4" d="M719.9,105.6c0.3,0,0.6,0.2,0.6,0.6c0,0.3-0.2,0.6-0.6,0.6s-0.6-0.2-0.6-0.6
	C719.3,105.8,719.5,105.6,719.9,105.6"/>
<path class="st4" d="M723.6,105.6c0.3,0,0.6,0.2,0.6,0.6c0,0.3-0.2,0.6-0.6,0.6c-0.3,0-0.6-0.2-0.6-0.6
	C723,105.8,723.3,105.6,723.6,105.6"/>
<path class="st0" d="M726.4,135.2c0,5.7,0,11.3,0,17c0,2.4,1.2,2.9,2.6,4.1c1,0.9-0.2,2.4-1.1,1.8c-1.2-0.8-4-2.6-4-4.8v-15.7h-7
	v14.7c0,2.4,1.2,2.9,2.6,4.1c1,0.9-0.2,2.4-1.1,1.8c-1.2-0.8-4-2.6-4-4.8c0-6,0-12,0-18.1H726.4z"/>
<path class="st3" d="M716,116.9h8.7c0.9,0,1.7,0.7,1.7,1.7c0,5.3,0,10.7,0,16h-12c0-5.3,0-10.7,0-16
	C714.4,117.6,715.1,116.9,716,116.9"/>
<path class="st3" d="M716.9,118.1l-1.8-0.9c-4.9,4.4-6.5,11.3-6.6,20.4c0,1.7,2.2,1.6,2.3,0.1C711,129.6,712.5,122.9,716.9,118.1"/>
<polygon class="st9" points="716.9,116.8 719.6,116.8 719.6,119.5 "/>
<polygon class="st9" points="724.1,116.8 721.4,116.8 721.4,119.5 "/>
<path class="st3" d="M724.2,119.4c7.1,2.7,14-1.4,20.8-8.3c1.4-1.4-0.4-3.2-1.6-2c-5.9,6-11.6,9.4-18.2,7.8L724.2,119.4z"/>
<path class="st4" d="M721.8,110.3c0.5,0,0.9,0.4,0.9,0.9s-0.4,0.9-0.9,0.9c-0.5,0-0.9-0.4-0.9-0.9S721.3,110.3,721.8,110.3"/>
<path class="st2" d="M795.5,107.6h10.3c1,0,1.9,0.9,1.9,1.9v5.7c0,1-0.9,1.9-1.9,1.9h-10.3c-1,0-1.9-0.9-1.9-1.9v-1.8l-2.4,2.4
	c-0.7,0.7-1.3,0.3-1.3-0.4l0-6.1c0-0.8,0.6-1,1.3-0.3l2.4,2.4v-1.8C793.6,108.5,794.4,107.6,795.5,107.6"/>
<path class="st2" d="M795.5,103.4h10.3c0.8,0,1.5,0.7,1.5,1.5c0,0.8-0.7,1.5-1.5,1.5h-10.3c-0.8,0-1.5-0.7-1.5-1.5
	C794,104.1,794.7,103.4,795.5,103.4"/>
<path class="st2" d="M801.4,115.9L801.4,115.9c-0.5,0.1-0.8,0.5-0.7,1l5.7,40.6c0.1,0.5,0.5,0.8,1,0.7h0c0.5-0.1,0.8-0.5,0.7-1
	l-5.7-40.6C802.3,116.2,801.9,115.9,801.4,115.9 M800,115.9L800,115.9c0.5,0.1,0.8,0.5,0.7,1l-5.7,40.6c-0.1,0.5-0.5,0.8-1,0.7l0,0
	c-0.5-0.1-0.8-0.5-0.7-1l5.7-40.6C799.1,116.2,799.5,115.9,800,115.9z"/>
<path class="st0" d="M784.5,180.7h27.7c1.6,0,2.9,1.3,2.9,2.9v13.6c0,1.6-1.3,2.9-2.9,2.9h-27.7c-1.6,0-2.9-1.3-2.9-2.9v-13.6
	C781.6,182,782.9,180.7,784.5,180.7"/>
<path class="st0" d="M746.4,180.7h27.7c1.6,0,2.9,1.3,2.9,2.9v13.6c0,1.6-1.3,2.9-2.9,2.9h-27.7c-1.6,0-2.9-1.3-2.9-2.9v-13.6
	C743.5,182,744.8,180.7,746.4,180.7"/>
<path class="st2" d="M530,124.8h31.5c0,0,0.1,0,0.1,0.1v22.5c0,0,0,0.1-0.1,0.1H530c0,0-0.1,0-0.1-0.1L530,124.8
	C530,124.8,530,124.8,530,124.8 M545,148.8v9.7l-5.5,5.5c-0.3,0.3-0.3,0.8,0,1.1c0.3,0.3,0.8,0.3,1.1,0l4.3-4.3v3.8
	c0,0.4,0.4,0.8,0.8,0.8c0.4,0,0.8-0.4,0.8-0.8v-3.8l4.3,4.3c0.3,0.3,0.8,0.3,1.1,0c0.3-0.3,0.3-0.8,0-1.1l-5.5-5.5v-9.7h14.9
	c0.8,0,1.5-0.7,1.5-1.5v-22.5c0-0.8-0.7-1.5-1.5-1.5H530c-0.8,0-1.5,0.7-1.5,1.5v22.5c0,0.8,0.7,1.5,1.5,1.5H545z"/>
<path class="st7" d="M516.5,128.4l-0.1,2.6h-1v-0.9l-2.2,0.4c-0.3-2.7,0.1-4.5,1.7-4.8c0.1-1,0.7-1.7,2-1.8h7.1c0,1.2-0.5,2-1.4,2.4
	l1.1,1.1c-0.3,0.6-0.8,0.9-1.4,0.8H516.5z"/>
<path class="st8" d="M516.4,128.4c0-0.8,0.8-1.3,1.6-1.3h4.3c0,2,0,3.2,0,5.2c-0.1,4.8-7.1,4.7-7.1,0.2c-3.2,0.4-3.2-2.8,0-2.4h0.3
	v0.9h0.9V128.4z"/>
<path class="st4" d="M518.3,129.6c0.2,0,0.4,0.2,0.4,0.4c0,0.2-0.2,0.4-0.4,0.4s-0.4-0.2-0.4-0.4C517.9,129.7,518,129.6,518.3,129.6
	"/>
<path class="st4" d="M520.8,129.6c0.2,0,0.4,0.2,0.4,0.4c0,0.2-0.2,0.4-0.4,0.4s-0.4-0.2-0.4-0.4
	C520.4,129.7,520.6,129.6,520.8,129.6"/>
<path class="st0" d="M522.7,149.7c0,3.9,0,7.7,0,11.6c0,1.6,0.8,2,1.7,2.8c0.7,0.6-0.1,1.6-0.7,1.2c-0.8-0.6-2.7-1.7-2.7-3.3v-10.7
	h-4.7v10c0,1.6,0.8,2,1.7,2.8c0.7,0.6-0.1,1.6-0.7,1.2c-0.8-0.6-2.7-1.7-2.7-3.3c0-4.1,0-8.2,0-12.3H522.7z"/>
<path class="st3" d="M515.7,137.2h5.9c0.6,0,1.1,0.5,1.1,1.1c0,3.6,0,7.3,0,10.9h-8.2c0-3.6,0-7.2,0-10.9
	C514.5,137.7,515,137.2,515.7,137.2"/>
<path class="st3" d="M516.3,138l-1.2-0.6c-3.3,3-4.4,7.7-4.5,13.9c0,1.2,1.5,1.1,1.5,0C512.2,145.9,513.3,141.3,516.3,138"/>
<polygon class="st9" points="516.2,137.2 518.1,137.2 518.1,139 "/>
<polygon class="st9" points="521.1,137.2 519.3,137.2 519.3,139 "/>
<path class="st3" d="M521.2,138.9c4.8,1.8,9.5-1,14.2-5.6c0.9-0.9-0.3-2.2-1.1-1.3c-4,4.1-7.9,6.4-12.4,5.3L521.2,138.9z"/>
<path class="st4" d="M519.6,132.7c0.3,0,0.6,0.3,0.6,0.6s-0.3,0.6-0.6,0.6s-0.6-0.3-0.6-0.6S519.3,132.7,519.6,132.7"/>
<path class="st2" d="M569.7,130.9h7c0.7,0,1.3,0.6,1.3,1.3v3.9c0,0.7-0.6,1.3-1.3,1.3h-7c-0.7,0-1.3-0.6-1.3-1.3v-1.2l-1.7,1.7
	c-0.5,0.5-0.9,0.2-0.9-0.3l0-4.2c0-0.6,0.4-0.7,0.9-0.2l1.7,1.7v-1.2C568.4,131.5,569,130.9,569.7,130.9"/>
<path class="st2" d="M569.7,128.1h7c0.6,0,1,0.5,1,1c0,0.6-0.5,1-1,1h-7c-0.6,0-1-0.5-1-1C568.7,128.5,569.2,128.1,569.7,128.1"/>
<path class="st2" d="M573.8,136.6L573.8,136.6c-0.3,0-0.5,0.3-0.5,0.7l3.9,27.6c0,0.3,0.3,0.5,0.7,0.5h0c0.3,0,0.5-0.3,0.5-0.7
	l-3.9-27.6C574.4,136.8,574.1,136.5,573.8,136.6 M572.8,136.6L572.8,136.6c0.3,0,0.5,0.3,0.5,0.7l-3.9,27.6c0,0.3-0.3,0.5-0.7,0.5
	l0,0c-0.3,0-0.5-0.3-0.5-0.7l3.9-27.6C572.2,136.8,572.4,136.5,572.8,136.6z"/>
<path class="st0" d="M587.3,169.5h18.8c1.1,0,2,0.9,2,2v9.3c0,1.1-0.9,2-2,2h-18.8c-1.1,0-2-0.9-2-2v-9.3
	C585.3,170.4,586.2,169.5,587.3,169.5"/>
<path class="st0" d="M561.4,169.5h18.8c1.1,0,2,0.9,2,2v9.3c0,1.1-0.9,2-2,2h-18.8c-1.1,0-2-0.9-2-2v-9.3
	C559.4,170.4,560.3,169.5,561.4,169.5"/>
<path class="st2" d="M287.4,85.9h43.8c0,0,0.1,0,0.1,0.1v31.4c0,0,0,0.1-0.1,0.1h-43.8c0,0-0.1,0-0.1-0.1L287.4,85.9
	C287.4,86,287.4,85.9,287.4,85.9 M308.2,119.4V133l-7.6,7.6c-0.4,0.4-0.4,1.1,0,1.5c0.4,0.4,1.1,0.4,1.5,0l6.1-6.1v5.3
	c0,0.6,0.5,1.1,1.1,1.1c0.6,0,1.1-0.5,1.1-1.1v-5.3l6.1,6.1c0.4,0.4,1.1,0.4,1.5,0c0.4-0.4,0.4-1.1,0-1.5l-7.6-7.6v-13.5h20.8
	c1.1,0,2-0.9,2-2V86c0-1.1-0.9-2-2-2h-43.8c-1.1,0-2,0.9-2,2v31.4c0,1.1,0.9,2,2,2H308.2z"/>
<path class="st7" d="M268.6,91l-0.1,3.7h-1.4v-1.2l-3.1,0.6c-0.5-3.8,0.1-6.3,2.3-6.7c0.2-1.4,0.9-2.4,2.7-2.5h9.9
	c0,1.7-0.7,2.8-2,3.4l1.6,1.6c-0.5,0.9-1.2,1.2-2,1.1H268.6z"/>
<path class="st8" d="M268.5,90.9c0-1.1,1.1-1.8,2.2-1.8h6c0,2.8,0,4.4,0,7.2c-0.1,6.7-9.8,6.5-9.8,0.3c-4.5,0.6-4.5-3.9,0-3.3h0.4
	v1.2h1.2V90.9z"/>
<path class="st4" d="M271,92.6c0.3,0,0.5,0.2,0.5,0.5c0,0.3-0.2,0.5-0.5,0.5c-0.3,0-0.5-0.2-0.5-0.5C270.5,92.8,270.7,92.6,271,92.6
	"/>
<path class="st4" d="M274.5,92.6c0.3,0,0.5,0.2,0.5,0.5c0,0.3-0.2,0.5-0.5,0.5s-0.5-0.2-0.5-0.5C274,92.8,274.3,92.6,274.5,92.6"/>
<path class="st0" d="M277.2,120.6c0,5.4,0,10.7,0,16.1c0,2.2,1.2,2.7,2.4,3.9c1,0.9-0.2,2.3-1,1.7c-1.1-0.8-3.8-2.4-3.8-4.6v-14.9
	h-6.6v13.9c0,2.2,1.2,2.7,2.4,3.9c1,0.9-0.2,2.3-1,1.7c-1.1-0.8-3.8-2.4-3.8-4.6c0-5.7,0-11.4,0-17.1H277.2z"/>
<path class="st3" d="M267.4,103.3h8.2c0.9,0,1.6,0.7,1.6,1.6c0,5,0,10.1,0,15.1h-11.4c0-5,0-10.1,0-15.1
	C265.9,104,266.6,103.3,267.4,103.3"/>
<path class="st3" d="M268.2,104.4l-1.7-0.9c-4.6,4.1-6.2,10.7-6.3,19.4c0,1.6,2.1,1.5,2.1,0.1C262.6,115.3,264.1,109,268.2,104.4"/>
<polygon class="st9" points="268.2,103.2 270.8,103.2 270.8,105.8 "/>
<polygon class="st9" points="275,103.2 272.5,103.2 272.5,105.8 "/>
<path class="st3" d="M275.1,105.7c6.7,2.5,13.3-1.3,19.7-7.8c1.3-1.3-0.4-3-1.5-1.9c-5.6,5.7-11,8.9-17.2,7.4L275.1,105.7z"/>
<path class="st4" d="M272.9,97c0.4,0,0.8,0.4,0.8,0.8s-0.4,0.8-0.8,0.8s-0.8-0.4-0.8-0.8S272.4,97,272.9,97"/>
<path class="st2" d="M342.7,94.5h9.8c1,0,1.8,0.8,1.8,1.8v5.4c0,1-0.8,1.8-1.8,1.8h-9.8c-1,0-1.8-0.8-1.8-1.8V100l-2.3,2.3
	c-0.7,0.7-1.2,0.3-1.2-0.4l0-5.8c0-0.8,0.6-0.9,1.2-0.3l2.3,2.3v-1.7C340.9,95.3,341.7,94.5,342.7,94.5"/>
<path class="st2" d="M342.7,90.6h9.8c0.8,0,1.4,0.6,1.4,1.4c0,0.8-0.6,1.4-1.4,1.4h-9.8c-0.8,0-1.4-0.6-1.4-1.4
	C341.3,91.2,341.9,90.6,342.7,90.6"/>
<path class="st2" d="M348.3,102.4L348.3,102.4c-0.4,0.1-0.7,0.5-0.7,0.9l5.4,38.4c0.1,0.4,0.5,0.7,0.9,0.7h0
	c0.4-0.1,0.7-0.5,0.7-0.9l-5.4-38.4C349.1,102.6,348.7,102.3,348.3,102.4 M346.9,102.4L346.9,102.4c0.4,0.1,0.7,0.5,0.7,0.9
	l-5.4,38.4c-0.1,0.4-0.5,0.7-0.9,0.7h0c-0.4-0.1-0.7-0.5-0.7-0.9l5.4-38.4C346.1,102.6,346.5,102.3,346.9,102.4z"/>
<path class="st0" d="M383.2,141.7c-0.5-0.4-1.1-0.6-1.7-0.6h-26.2c-1.5,0-2.8,1.2-2.8,2.8v12.9c0,1.5,1.2,2.8,2.8,2.8h10.9
	C368.8,151.1,375.1,145.1,383.2,141.7z"/>
<path class="st0" d="M319.2,141.1h26.2c1.5,0,2.8,1.2,2.8,2.8v12.9c0,1.5-1.2,2.8-2.8,2.8h-26.2c-1.5,0-2.8-1.2-2.8-2.8v-12.9
	C316.4,142.4,317.7,141.1,319.2,141.1"/>
<path class="st2" d="M123.2,105.6h25.4c0,0,0,0,0,0v18.2c0,0,0,0,0,0h-25.4c0,0,0,0,0,0L123.2,105.6
	C123.2,105.6,123.2,105.6,123.2,105.6 M135.3,125v7.9l-4.4,4.4c-0.2,0.2-0.2,0.6,0,0.9c0.2,0.2,0.6,0.2,0.9,0l3.5-3.5v3.1
	c0,0.3,0.3,0.6,0.6,0.6c0.3,0,0.6-0.3,0.6-0.6v-3.1l3.5,3.5c0.2,0.2,0.6,0.2,0.9,0c0.2-0.2,0.2-0.6,0-0.9l-4.4-4.4V125h12.1
	c0.7,0,1.2-0.5,1.2-1.2v-18.2c0-0.7-0.5-1.2-1.2-1.2h-25.4c-0.7,0-1.2,0.5-1.2,1.2v18.2c0,0.7,0.5,1.2,1.2,1.2H135.3z"/>
<path class="st7" d="M112.3,108.5l-0.1,2.1h-0.8V110l-1.8,0.3c-0.3-2.2,0.1-3.6,1.3-3.9c0.1-0.8,0.5-1.4,1.6-1.4h5.7
	c0,1-0.4,1.6-1.1,2l0.9,0.9c-0.3,0.5-0.7,0.7-1.1,0.7H112.3z"/>
<path class="st8" d="M112.3,108.5c0-0.6,0.6-1,1.3-1h3.5c0,1.6,0,2.6,0,4.2c-0.1,3.9-5.7,3.8-5.7,0.2c-2.6,0.4-2.6-2.2,0-1.9h0.2
	v0.7h0.7V108.5z"/>
<path class="st4" d="M113.7,109.5c0.2,0,0.3,0.1,0.3,0.3c0,0.2-0.1,0.3-0.3,0.3s-0.3-0.1-0.3-0.3
	C113.4,109.6,113.6,109.5,113.7,109.5"/>
<path class="st4" d="M115.8,109.5c0.2,0,0.3,0.1,0.3,0.3c0,0.2-0.1,0.3-0.3,0.3s-0.3-0.1-0.3-0.3
	C115.5,109.6,115.6,109.5,115.8,109.5"/>
<path class="st0" d="M117.3,125.7c0,3.1,0,6.2,0,9.3c0,1.3,0.7,1.6,1.4,2.3c0.6,0.5-0.1,1.3-0.6,1c-0.6-0.4-2.2-1.4-2.2-2.6V127
	h-3.8v8.1c0,1.3,0.7,1.6,1.4,2.3c0.6,0.5-0.1,1.3-0.6,1c-0.6-0.4-2.2-1.4-2.2-2.6c0-3.3,0-6.6,0-9.9H117.3z"/>
<path class="st3" d="M111.6,115.7h4.8c0.5,0,0.9,0.4,0.9,0.9c0,2.9,0,5.9,0,8.8h-6.6c0-2.9,0-5.8,0-8.8
	C110.7,116.1,111.1,115.7,111.6,115.7"/>
<path class="st3" d="M112.1,116.3l-1-0.5c-2.7,2.4-3.6,6.2-3.6,11.2c0,0.9,1.2,0.9,1.2,0C108.9,122.6,109.7,119,112.1,116.3"/>
<polygon class="st9" points="112.1,115.6 113.6,115.6 113.6,117.1 "/>
<polygon class="st9" points="116,115.6 114.6,115.6 114.6,117.1 "/>
<path class="st3" d="M116.1,117.1c3.9,1.5,7.7-0.8,11.4-4.5c0.7-0.8-0.2-1.8-0.9-1.1c-3.3,3.3-6.3,5.1-10,4.3L116.1,117.1z"/>
<path class="st4" d="M114.8,112.1c0.3,0,0.5,0.2,0.5,0.5c0,0.3-0.2,0.5-0.5,0.5s-0.5-0.2-0.5-0.5
	C114.3,112.3,114.5,112.1,114.8,112.1"/>
<path class="st2" d="M155.3,110.6h5.7c0.6,0,1,0.5,1,1v3.1c0,0.6-0.5,1-1,1h-5.7c-0.6,0-1-0.5-1-1v-1l-1.3,1.3
	c-0.4,0.4-0.7,0.2-0.7-0.2l0-3.4c0-0.5,0.4-0.5,0.7-0.2l1.3,1.3v-1C154.2,111.1,154.7,110.6,155.3,110.6"/>
<path class="st2" d="M155.3,108.3h5.7c0.4,0,0.8,0.4,0.8,0.8s-0.4,0.8-0.8,0.8h-5.7c-0.4,0-0.8-0.4-0.8-0.8S154.8,108.3,155.3,108.3
	"/>
<path class="st2" d="M158.5,115.2L158.5,115.2c-0.3,0-0.4,0.3-0.4,0.5l3.2,22.3c0,0.3,0.3,0.4,0.5,0.4h0c0.3,0,0.4-0.3,0.4-0.5
	l-3.2-22.3C159,115.3,158.8,115.1,158.5,115.2 M157.7,115.2L157.7,115.2c0.3,0,0.4,0.3,0.4,0.5L155,138c0,0.3-0.3,0.4-0.5,0.4h0
	c-0.3,0-0.4-0.3-0.4-0.5l3.2-22.3C157.2,115.3,157.5,115.1,157.7,115.2z"/>
<path class="st0" d="M163.1,165c-0.1-1-0.1-2,0.1-3.1c-0.2-0.1-0.5-0.2-0.8-0.2h-15.2c-0.9,0-1.6,0.7-1.6,1.6v7.5
	c0,0.9,0.7,1.6,1.6,1.6h15.2c0.9,0,1.6-0.7,1.6-1.6V169C163.5,167.7,163.2,166.3,163.1,165z"/>
<path class="st0" d="M126.3,161.7h15.2c0.9,0,1.6,0.7,1.6,1.6v7.5c0,0.9-0.7,1.6-1.6,1.6h-15.2c-0.9,0-1.6-0.7-1.6-1.6v-7.5
	C124.7,162.5,125.4,161.7,126.3,161.7"/>
</svg>
