<svg xmlns="http://www.w3.org/2000/svg" width="734.094" height="110">
	<g fill="#fff">
		<path d="M294.942 33.865c0 .268-.038.573-.115.955-.076.383-.21.842-.4 1.395L279.6 84.075c-.115.42-.287.745-.534 1.012-.25.268-.574.46-1.014.613-.42.152-1.012.247-1.757.305-.745.057-1.68.095-2.79.095-1.165 0-2.14-.038-2.923-.115-.783-.075-1.394-.19-1.872-.344-.46-.15-.803-.34-1.03-.61-.232-.26-.404-.57-.5-.95l-10.583-36.55-.115-.49-.115.5-9.8 36.55c-.097.42-.287.75-.517 1.01-.247.27-.61.46-1.09.62-.495.16-1.126.25-1.89.31s-1.7.1-2.828.1c-1.146 0-2.082-.03-2.827-.11-.726-.07-1.318-.19-1.777-.34-.478-.15-.822-.34-1.032-.61-.23-.26-.4-.57-.516-.95l-14.71-47.86c-.193-.55-.327-1.01-.402-1.39-.077-.38-.115-.69-.115-.96 0-.32.076-.61.23-.8.152-.21.4-.38.763-.51.344-.13.822-.21 1.415-.24.62-.04 1.34-.06 2.2-.06 1.03 0 1.88.04 2.51.1.65.06 1.13.14 1.47.27.33.14.58.33.73.58.14.23.27.52.39.86l12.15 41.53.12.5.12-.49L252.1 34.1c.06-.348.19-.63.37-.86.16-.25.42-.44.75-.578.34-.132.8-.21 1.38-.27.57-.053 1.33-.09 2.27-.09.88 0 1.62.04 2.2.1.6.054 1.05.13 1.38.264.35.136.58.31.73.537.16.23.27.47.35.78l12.03 41.65.12.5.038-.5 11.98-41.54c.08-.347.21-.63.366-.86.17-.25.44-.44.787-.577.37-.14.84-.21 1.47-.27.62-.06 1.4-.1 2.37-.1.9 0 1.63.02 2.16.06.54.04.98.13 1.28.29.33.15.56.31.67.5.13.19.21.45.21.78zm54.45 23.12c0 1.45-.36 2.5-1.087 3.112-.727.61-1.548.917-2.485.917h-33.033c0 2.81.286 5.312.84 7.566.554 2.235 1.49 4.147 2.808 5.75 1.3 1.607 3 2.847 5.083 3.707 2.102.86 4.643 1.28 7.68 1.28 2.388 0 4.51-.19 6.382-.592 1.853-.38 3.477-.82 4.833-1.317 1.357-.478 2.484-.918 3.364-1.3.878-.4 1.528-.592 1.987-.592.248 0 .495.057.687.19.22.134.37.326.48.593.12.26.21.63.27 1.08.04.46.08 1.03.08 1.7 0 .49-.02.91-.05 1.26-.04.36-.07.67-.13.95-.05.28-.15.53-.28.76-.13.21-.3.44-.5.63-.21.21-.82.55-1.83 1.01-.99.46-2.31.91-3.91 1.37-1.6.44-3.46.84-5.56 1.2-2.1.34-4.35.54-6.74.54-4.14 0-7.77-.6-10.89-1.74-3.11-1.17-5.73-2.89-7.87-5.16-2.12-2.27-3.72-5.12-4.81-8.56-1.07-3.44-1.62-7.43-1.62-11.98 0-4.32.57-8.22 1.68-11.67 1.13-3.44 2.74-6.38 4.86-8.79 2.11-2.41 4.65-4.24 7.65-5.54 2.98-1.28 6.32-1.93 10.01-1.93 3.96 0 7.32.63 10.11 1.91 2.77 1.26 5.06 2.98 6.86 5.12 1.79 2.14 3.09 4.66 3.94 7.55.84 2.9 1.26 5.98 1.26 9.26v1.68zm-9.284-2.734c.114-4.85-.956-8.67-3.23-11.42-2.253-2.77-5.597-4.14-10.03-4.14-2.293 0-4.28.44-6 1.3-1.718.84-3.15 1.99-4.298 3.4-1.165 1.42-2.064 3.08-2.694 4.95-.63 1.89-.994 3.86-1.07 5.92h27.322zm69.68 4.25c0 4.38-.48 8.29-1.434 11.79-.936 3.5-2.35 6.46-4.183 8.93-1.85 2.47-4.12 4.36-6.8 5.66-2.69 1.3-5.77 1.97-9.25 1.97-1.6 0-3.07-.17-4.45-.47-1.35-.32-2.69-.84-3.99-1.55-1.32-.7-2.61-1.6-3.91-2.67-1.32-1.09-2.69-2.39-4.14-3.93v6.17c0 .29-.07.56-.23.79-.15.21-.38.4-.72.54-.32.12-.74.23-1.26.31-.5.08-1.14.12-1.93.12-.74 0-1.37-.03-1.89-.11-.53-.07-.95-.19-1.3-.3-.32-.13-.55-.32-.66-.53-.11-.23-.17-.49-.17-.78V9.59c0-.31.08-.577.21-.787.12-.23.37-.42.73-.573.35-.134.82-.25 1.42-.325.61-.08 1.36-.12 2.24-.12.94 0 1.7.04 2.31.11.59.074 1.05.19 1.4.323.33.153.57.344.73.573.15.21.23.48.23.79v30.17c1.49-1.53 2.92-2.83 4.34-3.86 1.4-1.05 2.77-1.89 4.11-2.56 1.34-.65 2.69-1.12 4.03-1.41 1.34-.3 2.77-.46 4.26-.46 3.65 0 6.78.73 9.36 2.18 2.6 1.47 4.7 3.42 6.33 5.87 1.62 2.45 2.81 5.3 3.55 8.58.76 3.29 1.13 6.77 1.13 10.42zm-9.744 1.07c0-2.58-.192-5.08-.574-7.51-.4-2.42-1.09-4.56-2.044-6.44-.975-1.85-2.274-3.36-3.878-4.49-1.606-1.14-3.593-1.72-5.98-1.72-1.204 0-2.37.18-3.536.52-1.146.33-2.33.88-3.514 1.66-1.204.79-2.446 1.8-3.726 3.04-1.28 1.23-2.657 2.77-4.108 4.65v20.1c2.522 3.1 4.948 5.45 7.28 7.07 2.31 1.63 4.717 2.45 7.202 2.45 2.33 0 4.298-.57 5.94-1.68 1.645-1.12 2.983-2.6 3.994-4.45 1.032-1.85 1.778-3.92 2.256-6.21.457-2.29.688-4.62.688-6.97zm32.86 24.8c0 .29-.076.55-.228.75-.153.21-.4.38-.726.54-.344.16-.803.27-1.394.35-.613.08-1.376.12-2.313.12-.88 0-1.624-.04-2.235-.11-.592-.07-1.07-.19-1.414-.34-.363-.15-.61-.32-.726-.53-.134-.19-.21-.46-.21-.74V34c0-.266.076-.495.21-.724.115-.23.363-.42.726-.555.344-.15.822-.26 1.414-.34.61-.07 1.356-.11 2.235-.11.937 0 1.7.04 2.313.12.59.08 1.05.19 1.394.35.325.14.573.33.726.56.152.23.23.46.23.73V84.4zm1.053-67.4c0 2.18-.403 3.65-1.224 4.43-.822.79-2.33 1.17-4.528 1.17-2.178 0-3.65-.38-4.452-1.14-.8-.76-1.204-2.2-1.204-4.34 0-2.15.4-3.63 1.22-4.41.82-.78 2.33-1.18 4.52-1.18 2.18 0 3.65.39 4.45 1.15.8.76 1.2 2.22 1.2 4.34zm59.4 67.41c0 .29-.077.56-.23.75-.152.21-.383.38-.727.54-.343.16-.8.27-1.393.35-.612.08-1.358.12-2.236.12-.93 0-1.7-.04-2.31-.11-.59-.07-1.05-.19-1.39-.34-.32-.15-.57-.32-.72-.53-.15-.19-.23-.46-.23-.74V54.9c0-2.886-.21-5.198-.67-6.936-.44-1.76-1.08-3.265-1.94-4.545-.86-1.26-1.97-2.24-3.34-2.91-1.35-.67-2.92-1.02-4.72-1.02-2.31 0-4.62.82-6.93 2.46-2.33 1.64-4.76 4.05-7.28 7.22v35.21c0 .28-.07.55-.23.74-.15.21-.4.38-.72.53-.34.15-.8.27-1.39.34-.61.07-1.37.11-2.31.11-.88 0-1.62-.04-2.23-.11-.59-.08-1.07-.19-1.41-.35-.36-.15-.61-.33-.72-.54-.14-.19-.21-.46-.21-.75v-50.4c0-.3.06-.55.17-.76.11-.19.34-.38.67-.55.35-.18.77-.27 1.3-.33.52-.06 1.21-.1 2.07-.1.82 0 1.51.04 2.05.1.54.06.96.16 1.26.33.29.17.52.36.65.56.12.21.19.46.19.762v6.67c2.83-3.17 5.66-5.51 8.49-6.98 2.8-1.47 5.65-2.216 8.52-2.216 3.36 0 6.19.575 8.48 1.72 2.29 1.13 4.17 2.66 5.58 4.55 1.41 1.91 2.43 4.146 3.04 6.686.63 2.57.94 5.64.94 9.21v30.74zm54.794.06c0 .44-.15.79-.45 1-.28.23-.7.4-1.22.52-.53.11-1.3.17-2.29.17-.97 0-1.76-.06-2.33-.17-.57-.12-.99-.29-1.26-.52-.26-.21-.38-.55-.38-.99V79.4c-2.21 2.35-4.66 4.184-7.37 5.484-2.69 1.295-5.56 1.965-8.58 1.965-2.65 0-5.06-.35-7.2-1.06-2.14-.69-3.97-1.68-5.48-2.98-1.51-1.32-2.69-2.92-3.53-4.82-.82-1.91-1.24-4.07-1.24-6.49 0-2.85.58-5.29 1.72-7.39 1.17-2.09 2.83-3.82 4.99-5.2 2.16-1.4 4.82-2.43 7.95-3.12 3.14-.69 6.67-1.03 10.59-1.03H539v-3.92c0-1.95-.21-3.67-.614-5.16-.42-1.49-1.07-2.73-1.99-3.71-.916-.99-2.1-1.74-3.554-2.25-1.45-.5-3.25-.75-5.37-.75-2.29 0-4.32.27-6.13.8-1.82.55-3.4 1.14-4.76 1.79-1.378.65-2.505 1.24-3.42 1.8-.92.53-1.588.8-2.047.8-.285 0-.552-.07-.78-.21-.23-.15-.42-.38-.593-.69-.15-.28-.282-.67-.36-1.14-.074-.46-.113-.98-.113-1.53 0-.94.07-1.68.21-2.21.13-.54.44-1.05.95-1.55.49-.48 1.35-1.05 2.59-1.7 1.22-.65 2.63-1.24 4.24-1.8 1.6-.54 3.36-.98 5.27-1.34 1.89-.37 3.82-.54 5.77-.54 3.61 0 6.69.42 9.23 1.24 2.54.82 4.58 2.02 6.15 3.61 1.57 1.58 2.71 3.55 3.42 5.9s1.07 5.08 1.07 8.212v33.99zm-9.18-23h-7.89c-2.54 0-4.73.21-6.61.63-1.85.44-3.4 1.07-4.64 1.91-1.22.84-2.14 1.86-2.71 3.02-.57 1.19-.86 2.52-.86 4.05 0 2.62.82 4.7 2.49 6.25 1.66 1.55 4 2.33 6.98 2.33 2.43 0 4.67-.61 6.75-1.85 2.06-1.22 4.24-3.11 6.52-5.65v-10.7zm55.58-24.13c0 .82-.01 1.51-.05 2.06-.04.58-.11 1.02-.21 1.32-.11.33-.26.56-.42.73-.17.18-.4.25-.7.25-.3 0-.67-.07-1.09-.24-.44-.17-.91-.32-1.45-.49-.55-.17-1.15-.33-1.81-.48-.69-.15-1.41-.23-2.2-.23-.93 0-1.83.19-2.73.57-.9.37-1.85.98-2.83 1.84-.99.86-2.02 2.01-3.11 3.42-1.07 1.41-2.27 3.15-3.57 5.2V84.4c0 .287-.07.554-.23.746-.15.21-.4.38-.72.53-.34.15-.8.266-1.39.34-.61.078-1.37.116-2.31.116-.88 0-1.62-.04-2.23-.117-.6-.075-1.07-.19-1.42-.34-.36-.156-.61-.328-.72-.538-.13-.196-.21-.46-.21-.75v-50.4c0-.303.06-.55.17-.76.12-.193.35-.383.67-.555.34-.173.76-.27 1.3-.326.51-.054 1.2-.092 2.06-.092.83 0 1.51.04 2.05.1.53.06.95.16 1.26.33.29.17.52.36.65.56.11.21.19.46.19.77v7.34c1.38-2.03 2.68-3.67 3.88-4.93 1.22-1.26 2.37-2.276 3.46-3 1.07-.73 2.14-1.226 3.21-1.51 1.07-.27 2.14-.42 3.21-.42.5 0 1.05.035 1.67.092.61.056 1.26.153 1.93.305.67.15 1.28.3 1.81.5.55.19.94.38 1.15.55.23.19.38.36.45.54.08.17.14.38.19.65.06.27.1.65.12 1.15.02.5.02 1.18.02 2.04M617 79.68c0 2.64-.44 4.412-1.32 5.29-.86.86-2.463 1.3-4.774 1.3-2.237 0-3.785-.42-4.644-1.28-.86-.86-1.3-2.58-1.3-5.16 0-2.64.44-4.415 1.317-5.275.88-.872 2.49-1.32 4.8-1.32 2.24 0 3.78.428 4.64 1.288.86.86 1.28 2.58 1.28 5.16zm46.47-42.38c0 .82-.02 1.51-.06 2.06-.038.575-.114 1.014-.21 1.32-.115.325-.267.554-.42.726-.17.172-.4.248-.707.248-.305 0-.67-.07-1.09-.24-.44-.17-.916-.33-1.45-.5-.555-.17-1.147-.323-1.816-.48-.687-.15-1.414-.23-2.197-.23-.94 0-1.836.19-2.73.578-.9.37-1.857.98-2.83 1.84-.995.86-2.027 2.01-3.117 3.42-1.07 1.42-2.272 3.15-3.57 5.2v33.15c0 .29-.08.55-.23.748-.16.21-.4.38-.73.536-.345.154-.8.27-1.396.344-.617.077-1.38.115-2.317.115-.88 0-1.624-.04-2.235-.12-.595-.07-1.07-.19-1.416-.34-.37-.152-.62-.324-.73-.534-.14-.19-.21-.46-.21-.75v-50.4c0-.3.05-.55.17-.76.11-.19.34-.38.67-.55.34-.17.76-.26 1.3-.32.51-.05 1.2-.09 2.06-.09.82 0 1.51.04 2.04.1s.95.16 1.26.33c.28.17.51.36.65.56.11.21.19.45.19.76v7.33c1.37-2.03 2.67-3.67 3.88-4.93 1.22-1.26 2.36-2.28 3.45-3 1.07-.73 2.14-1.23 3.21-1.51 1.07-.27 2.14-.42 3.21-.42.5 0 1.05.04 1.66.09.61.05 1.26.15 1.93.3.67.15 1.28.3 1.81.5.55.19.93.38 1.14.55.23.19.38.36.46.53.08.17.13.38.19.65s.1.65.12 1.15c.02.5.02 1.18.02 2.04zm53.685 47.075c0 .29-.058.56-.19.75-.135.21-.365.38-.71.54-.323.155-.762.27-1.316.345-.54.08-1.21.118-1.99.118-.86 0-1.55-.04-2.11-.12-.54-.073-.96-.19-1.28-.342-.33-.15-.54-.32-.65-.53-.1-.194-.16-.46-.16-.747V77.7c-2.89 3.17-5.71 5.483-8.52 6.935-2.79 1.47-5.64 2.197-8.51 2.197-3.36 0-6.19-.574-8.48-1.68-2.3-1.13-4.15-2.64-5.56-4.57-1.44-1.93-2.45-4.165-3.06-6.726-.61-2.54-.92-5.654-.92-9.303V33.98c0-.305.06-.553.19-.763.13-.192.38-.383.75-.554.38-.17.86-.266 1.47-.324.59-.06 1.33-.1 2.23-.1.9 0 1.64.04 2.23.09.59.05 1.07.15 1.43.32.34.17.59.36.75.55.15.21.23.45.23.76V63.3c0 2.94.21 5.31.65 7.09.42 1.775 1.07 3.284 1.95 4.526.88 1.26 1.98 2.216 3.32 2.904 1.35.707 2.92 1.05 4.72 1.05 2.31 0 4.6-.82 6.9-2.463 2.31-1.643 4.73-4.05 7.31-7.22V33.98c0-.305.05-.553.19-.763.13-.192.38-.383.76-.554.36-.17.84-.267 1.41-.325.57-.057 1.34-.095 2.27-.095.9 0 1.64.038 2.23.095.59.058 1.07.154 1.39.326.34.172.59.363.76.555.17.21.25.45.25.76v50.38z"/>
		<path fill-rule="evenodd" d="M25.298 7.186c53.596-8.546 108.333-9.097 164.45 0 5.985.97 11.027 4.96 11.027 11.026v73.72c0 6.064-5.042 10.056-11.027 11.026-56.117 9.097-110.854 8.545-164.45 0-5.987-.954-11.027-4.962-11.027-11.026v-73.72c0-6.065 5.04-10.072 11.03-11.026zm77.29 48.836c0 5.348-.663 10.134-1.992 14.358-1.33 4.224-3.305 7.817-5.944 10.765-2.624 2.93-5.877 5.177-9.744 6.727-3.884 1.55-8.363 2.317-13.456 2.317-5.024 0-9.4-.65-13.15-1.96-3.747-1.31-6.864-3.32-9.35-6.02-2.504-2.71-4.378-6.14-5.62-10.29-1.244-4.16-1.874-9.08-1.874-14.77 0-5.23.663-9.93 2.01-14.1 1.328-4.18 3.304-7.72 5.926-10.65 2.624-2.93 5.877-5.18 9.76-6.75 3.868-1.57 8.38-2.34 13.49-2.34 4.907 0 9.215.65 12.963 1.94 3.73 1.29 6.864 3.28 9.368 5.97 2.52 2.71 4.41 6.1 5.69 10.22 1.293 4.1 1.923 8.94 1.923 14.55zm-13.762.698c0-3.407-.273-6.49-.8-9.267-.53-2.776-1.448-5.16-2.726-7.136-1.277-1.976-2.98-3.51-5.11-4.582-2.128-1.09-4.786-1.635-7.99-1.635-3.217 0-5.925.614-8.088 1.822-2.147 1.227-3.9 2.845-5.23 4.87-1.328 2.03-2.266 4.397-2.828 7.105-.545 2.725-.817 5.586-.817 8.618 0 3.525.272 6.694.8 9.504.528 2.81 1.43 5.21 2.692 7.2 1.26 1.99 2.96 3.52 5.09 4.56 2.13 1.05 4.8 1.58 8.04 1.58 3.22 0 5.91-.62 8.07-1.81s3.92-2.83 5.24-4.89c1.33-2.06 2.26-4.46 2.81-7.21.56-2.74.83-5.68.83-8.76zm78.046 27.73c0 .765-.137 1.447-.392 2.06-.273.597-.63 1.09-1.073 1.482-.46.41-.988.698-1.6.886-.615.17-1.245.272-1.876.272h-5.58c-1.16 0-2.18-.12-3.01-.358-.85-.22-1.63-.647-2.35-1.26-.71-.613-1.41-1.448-2.08-2.504-.66-1.04-1.41-2.4-2.23-4.07L130.6 50.775c-.92-1.806-1.87-3.73-2.843-5.808-.953-2.08-1.822-4.105-2.59-6.064h-.1c.136 2.384.238 4.77.307 7.153.05 2.386.084 4.84.084 7.36V87.21c0 .322-.083.63-.272.884-.17.273-.49.494-.934.68-.46.19-1.055.325-1.822.427-.767.11-1.755.16-2.947.16-1.16 0-2.13-.05-2.895-.15-.767-.1-1.364-.23-1.806-.42-.43-.18-.718-.41-.888-.68-.17-.25-.255-.56-.255-.88V29.16c0-1.55.46-2.725 1.38-3.51.9-.782 2.02-1.173 3.35-1.173h7.05c1.26 0 2.31.102 3.18.323.87.22 1.63.58 2.31 1.073.68.494 1.33 1.192 1.92 2.077.6.87 1.21 1.96 1.84 3.255l12.59 23.607c.73 1.43 1.44 2.845 2.16 4.223.71 1.38 1.41 2.76 2.08 4.14.66 1.38 1.31 2.742 1.94 4.07.63 1.33 1.24 2.658 1.84 3.986h.05c-.1-2.33-.17-4.75-.22-7.28-.05-2.52-.07-4.94-.07-7.22V26.42c0-.324.1-.63.29-.903.2-.255.54-.494 1-.698.46-.19 1.07-.34 1.84-.41.76-.09 1.75-.14 2.94-.14 1.14 0 2.08.05 2.84.13.76.07 1.36.22 1.77.41.42.2.71.44.87.69.17.27.25.58.25.9v58.03z"/>
	</g>
</svg>
