<svg id="Capa_1" data-name="Capa 1" xmlns="http://www.w3.org/2000/svg" viewBox="0 0 18 28.414"><title>Guarantee</title><path d="M31.245,16.306a.63758.63758,0,0,1-.363-.877,2.64017,2.64017,0,0,0-3.517-3.518.63822.63822,0,0,1-.878-.363,2.63966,2.63966,0,0,0-4.974,0,.63757.63757,0,0,1-.877.363,2.64017,2.64017,0,0,0-3.518,3.517.64132.64132,0,0,1,.014.521.63286.63286,0,0,1-.377.357,2.63966,2.63966,0,0,0,0,4.974.63758.63758,0,0,1,.363.877,2.61392,2.61392,0,0,0,.518,3A2.64232,2.64232,0,0,0,19,25.885V38.207l5-5,5,5V25.884a2.6435,2.6435,0,0,0,1.882-3.726.64132.64132,0,0,1-.014-.521.63286.63286,0,0,1,.377-.357,2.63966,2.63966,0,0,0,0-4.974ZM24,30.379l-3,3V25.621a.20182.20182,0,0,1,.026.004.69634.69634,0,0,1,.13.036.678.678,0,0,1,.184.116.621.621,0,0,1,.173.261,2.63966,2.63966,0,0,0,4.974,0,.621.621,0,0,1,.173-.261.645.645,0,0,1,.184-.116.76831.76831,0,0,1,.129-.036l.026-.004v7.757Zm6.575-10.983a2.64114,2.64114,0,0,0-1.5,3.622.61133.61133,0,0,1-.126.726.62523.62523,0,0,1-.561.17l-.22-.069a2.36417,2.36417,0,0,0-.281-.092c-.07-.022-.138-.052-.209-.069a2.71684,2.71684,0,0,0-.299-.039c-.081-.009-.16-.026-.241-.028a2.78944,2.78944,0,0,0-.289.022c-.083.008-.167.006-.25.022a2.60428,2.60428,0,0,0-.52.154l-.002.001h0c-.044.018-.081.047-.124.067a2.6914,2.6914,0,0,0-.362.197,2.64028,2.64028,0,0,0-.373.319c-.013.013-.03.023-.043.037a2.64316,2.64316,0,0,0-.574.934.63936.63936,0,0,1-1.204-.002,2.6343,2.6343,0,0,0-.574-.934c-.01-.011-.023-.018-.034-.029a2.65721,2.65721,0,0,0-.383-.327,2.593,2.593,0,0,0-.348-.189c-.047-.023-.089-.055-.138-.075h0l-.001-.001c-.021-.009-.043-.011-.064-.019a2.18951,2.18951,0,0,0-.81-.168c-.045-.002-.09-.013-.135-.013l-.008.001a2.38723,2.38723,0,0,0-1.047.223l-.227.071a.6233.6233,0,0,1-.578-.166.612.612,0,0,1-.126-.727,2.64049,2.64049,0,0,0-1.5-3.621.63911.63911,0,0,1,.001-1.204,2.64114,2.64114,0,0,0,1.5-3.622.6402.6402,0,0,1,.853-.852,2.64049,2.64049,0,0,0,3.621-1.5.63936.63936,0,0,1,1.204.002,2.64114,2.64114,0,0,0,3.622,1.5.6402.6402,0,0,1,.852.853,2.64049,2.64049,0,0,0,1.5,3.621.63936.63936,0,0,1-.002,1.204Z" transform="translate(-15 -9.793)"/></svg>